<!DOCTYPE svg PUBLIC "-//W3C//DTD SVG 1.1//EN" "http://www.w3.org/Graphics/SVG/1.1/DTD/svg11.dtd">
<!-- Uploaded to: SVG Repo, www.svgrepo.com, Transformed by: SVG Repo Mixer Tools -->
<svg width="800px" height="800px" viewBox="0 0 24 24" fill="none" xmlns="http://www.w3.org/2000/svg">
<g id="SVGRepo_bgCarrier" stroke-width="0"/>
<g id="SVGRepo_tracerCarrier" stroke-linecap="round" stroke-linejoin="round"/>
<g id="SVGRepo_iconCarrier"> <path d="M12.7071 3.29289C12.3166 2.90237 11.6834 2.90237 11.2929 3.29289L6.29289 8.29289C5.90237 8.68342 5.90237 9.31658 6.29289 9.70711C6.68342 10.0976 7.31658 10.0976 7.70711 9.70711L12 5.41421L16.2929 9.70711C16.6834 10.0976 17.3166 10.0976 17.7071 9.70711C18.0976 9.31658 18.0976 8.68342 17.7071 8.29289L12.7071 3.29289Z" fill="#7f7f7f"/> <path d="M7.70711 14.2929C7.31658 13.9024 6.68342 13.9024 6.29289 14.2929C5.90237 14.6834 5.90237 15.3166 6.29289 15.7071L11.2929 20.7071C11.6834 21.0976 12.3166 21.0976 12.7071 20.7071L17.7071 15.7071C18.0976 15.3166 18.0976 14.6834 17.7071 14.2929C17.3166 13.9024 16.6834 13.9024 16.2929 14.2929L12 18.5858L7.70711 14.2929Z" fill="#7f7f7f"/> </g>
</svg>