<!DOCTYPE svg PUBLIC "-//W3C//DTD SVG 1.1//EN" "http://www.w3.org/Graphics/SVG/1.1/DTD/svg11.dtd">
<!--
  SVG 1.1 DTD (https://www.w3.org/Graphics/SVG/1.1/DTD/svg11.dtd)
  Copyright 2001, 2002, 2011 World Wide Web Consortium (W3C)
  (Massachusetts Institute of Technology, Institut National de Recherche en Informatique et en Automatique, Keio University)
  Licensed under W3C License (https://www.w3.org/Consortium/Legal/2002/copyright-documents)
  Author: Jun Fujisawa <fujisawa.jun@canon.co.jp>
-->

<!-- Uploaded to: SVG Repo, www.svgrepo.com, Transformed by: SVG Repo Mixer Tools -->
<svg width="800px" height="800px" viewBox="0 0 1024 1024" class="icon" version="1.1" xmlns="http://www.w3.org/2000/svg" fill="#7f7f7f" stroke="#7f7f7f">

<g id="SVGRepo_bgCarrier" stroke-width="0"/>

<g id="SVGRepo_tracerCarrier" stroke-linecap="round" stroke-linejoin="round"/>

<g id="SVGRepo_iconCarrier">

<path d="M682.666667 554.666667a42.666667 42.666667 0 0 0-42.666667-42.666667h-21.333333c-23.552 0-21.333333 19.114667-21.333334 42.666667l-21.333333 362.666666a42.666667 42.666667 0 0 0 42.666667 42.666667h42.666666a42.666667 42.666667 0 0 0 42.666667-42.666667l-21.333333-362.666666zM426.666667 448h-85.333334l-21.333333 469.333333a42.666667 42.666667 0 0 0 42.666667 42.666667h42.666666a42.666667 42.666667 0 0 0 42.666667-42.666667l-21.333333-469.333333z" fill="#7f7f7f"/>

<path d="M682.666667 554.666667h-85.333334V64c42.666667 0 192 85.333333 85.333334 490.666667zM448 64v277.333333h-42.666667V64h-42.666666v277.333333h-42.666667V64h-42.666667l-21.333333 298.666667 85.333333 85.333333h85.333334l85.333333-85.333333-21.333333-298.666667z" fill="#7f7f7f"/>

</g>

</svg>