<!DOCTYPE svg PUBLIC "-//W3C//DTD SVG 1.1//EN" "http://www.w3.org/Graphics/SVG/1.1/DTD/svg11.dtd">
<!--
  SVG 1.1 DTD (https://www.w3.org/Graphics/SVG/1.1/DTD/svg11.dtd)
  Copyright 2001, 2002, 2011 World Wide Web Consortium (W3C)
  (Massachusetts Institute of Technology, Institut National de Recherche en Informatique et en Automatique, Keio University)
  Licensed under W3C License (https://www.w3.org/Consortium/Legal/2002/copyright-documents)
  Author: Jun Fujisawa <fujisawa.jun@canon.co.jp>
-->

<!-- Uploaded to: SVG Repo, www.svgrepo.com, Transformed by: SVG Repo Mixer Tools -->
<svg width="800px" height="800px" viewBox="0 0 24 24" id="meteor-icon-kit__solid-party-horn" fill="none" xmlns="http://www.w3.org/2000/svg">

<g id="SVGRepo_bgCarrier" stroke-width="0"/>

<g id="SVGRepo_tracerCarrier" stroke-linecap="round" stroke-linejoin="round"/>

<g id="SVGRepo_iconCarrier"> <g clip-path="url(#clip0_1214_4417)"> <path fill-rule="evenodd" clip-rule="evenodd" d="M13 11C14.9509 11 16.2542 10.3277 17.1047 9.19375C17.8601 8.18654 18.1833 6.89179 18.4476 5.83292L18.4701 5.74254C18.7639 4.5674 19.0067 3.65769 19.4953 3.00625C19.9105 2.45271 20.5759 2 22 2C22.5523 2 23 1.55228 23 1C23 0.447715 22.5523 0 22 0C20.0491 0 18.7458 0.672288 17.8953 1.80625C17.1399 2.81346 16.8167 4.10821 16.5524 5.16708L16.5299 5.25746C16.2361 6.4326 15.9933 7.34231 15.5047 7.99375C15.0895 8.54729 14.4241 9 13 9C12.4477 9 12 9.44771 12 10C12 10.5523 12.4477 11 13 11ZM9.60168 0.201244C9.15997 -0.130281 8.53314 -0.0409558 8.20161 0.400757C7.87009 0.842469 7.95941 1.4693 8.40112 1.80083C8.82124 2.11615 9.17514 2.51113 9.44262 2.96321C9.71009 3.4153 9.8859 3.91565 9.96 4.43568C10.0341 4.95572 10.0051 5.48526 9.87452 5.99406C9.74397 6.50287 9.51449 6.98098 9.19917 7.4011C8.86765 7.84282 8.95697 8.46965 9.39868 8.80118C9.8404 9.1327 10.4672 9.04338 10.7988 8.60166C11.2717 7.97148 11.616 7.25431 11.8118 6.4911C12.0076 5.72789 12.0512 4.93358 11.94 4.15353C11.8288 3.37348 11.5651 2.62296 11.1639 1.94483C10.7627 1.26669 10.2319 0.674222 9.60168 0.201244ZM7 5C7 5.55228 6.55228 6 6 6C5.44772 6 5 5.55228 5 5C5 4.44772 5.44772 4 6 4C6.55228 4 7 4.44772 7 5ZM22 9C22.5523 9 23 8.55228 23 8C23 7.44772 22.5523 7 22 7C21.4477 7 21 7.44772 21 8C21 8.55228 21.4477 9 22 9ZM20 18C20 18.5523 19.5523 19 19 19C18.4477 19 18 18.5523 18 18C18 17.4477 18.4477 17 19 17C19.5523 17 20 17.4477 20 18ZM19.5663 14.0403C19.0464 13.9659 18.5168 13.9947 18.0079 14.125C17.4991 14.2553 17.0208 14.4845 16.6005 14.7996C16.1587 15.1309 15.5319 15.0413 15.2006 14.5994C14.8693 14.1575 14.9589 13.5307 15.4008 13.1994C16.0312 12.7268 16.7486 12.3829 17.5119 12.1875C18.2752 11.992 19.0695 11.9489 19.8495 12.0604C20.6295 12.172 21.3799 12.4361 22.0578 12.8377C22.7358 13.2392 23.3279 13.7704 23.8006 14.4008C24.1319 14.8427 24.0423 15.4695 23.6004 15.8008C23.1585 16.1321 22.5317 16.0424 22.2004 15.6005C21.8853 15.1802 21.4905 14.8261 21.0386 14.5584C20.5866 14.2907 20.0863 14.1147 19.5663 14.0403ZM6.70714 9.29291C6.46777 9.05355 6.12357 8.95153 5.79244 9.0218C5.4613 9.09207 5.1882 9.32509 5.06668 9.64104L3.67459 13.2605L10.7396 20.3255L14.359 18.9334C14.675 18.8118 14.908 18.5387 14.9782 18.2076C15.0485 17.8765 14.9465 17.5323 14.7071 17.2929L6.70714 9.29291ZM8.6968 21.1111L2.88891 15.3032L0.0666833 22.641C-0.0751812 23.0099 0.0134815 23.4277 0.292922 23.7071C0.572363 23.9866 0.99016 24.0752 1.35901 23.9334L8.6968 21.1111Z" fill="#4088A9"/> </g> <defs> <clipPath id="clip0_1214_4417"> <rect width="24" height="24" fill="white"/> </clipPath> </defs> </g>

</svg>